<?xml version="1.0" encoding="UTF-8" standalone="no" ?><!DOCTYPE svg PUBLIC "-//W3C//DTD SVG 1.1//EN" "http://www.w3.org/Graphics/SVG/1.1/DTD/svg11.dtd">
<svg xmlns="http://www.w3.org/2000/svg" xmlns:xlink="http://www.w3.org/1999/xlink" version="1.1" width="219" height="187" xml:space="preserve"><desc>Created with Fabric.js 1.4.11</desc><defs></defs><path d="M 14.694 25.254 c 7.784 -3.288 9.083 -5.104 19.956 -5.85 c 9.809 -0.65 17.735 1.093 23 2.925 c 5.384 1.755 14.087 6.213 19.956 7.801 c 6.472 1.842 12.248 1.945 12.515 0.649 c 0.726 -2.646 -2.627 -1.537 -10.824 -4.225 c -8.239 -2.376 -12.718 -5.67 -21.308 -9.102 c -6.61 -2.891 -19.609 -5.366 -29.426 -2.274 c -7.085 2.124 -10.571 3.422 -15.221 6.5 c -3.931 2.877 -7.753 5.02 -5.75 7.15 C 8.875 30.518 12.218 26.3 14.694 25.254 z" style="stroke: #ff2600; stroke-width: 1; stroke-dasharray: ; stroke-linecap: butt; stroke-linejoin: miter; stroke-miterlimit: 10; fill: #ff2600; fill-rule: source-over; opacity: 1;" transform="translate(111.25 103) scale(2 2)translate(-50, -50)" stroke-linecap="round" />
<path d="M 90.796 67.831 c -2.711 -1.616 -7.923 -2.824 -10.146 -0.975 c -3.597 2.709 -3.062 5.369 -2.706 7.15 c 0.207 1.035 2.999 2.34 4.397 2.275 c 0.969 -0.044 2.658 -1.873 2.706 -2.601 c 0.064 -1.006 -0.402 -2.144 -3.243 -3.038 c 0.946 -1.211 3.104 -1.88 5.61 -0.862 c 1.645 0.772 3.435 2.474 3.721 5.525 c 0.213 2.03 -2.647 5.349 -4.735 5.851 c -4.677 1.124 -10.97 0.661 -15.896 -1.3 c -6.234 -2.481 -10.286 -5.354 -16.912 -12.026 c -3.917 -4.173 -7.121 -10.154 -9.655 -13.576 c 8.148 -0.691 12.578 -2.661 18.645 -6.199 c 3.347 -1.618 9.241 -3.58 12.247 -5.105 c 0.812 0.242 1.603 0.446 2.359 0.601 c 6.583 1.431 13.3 0.134 13.478 -1.177 c 0.543 -2.686 -3.672 -0.331 -12.034 -2.497 c -8.384 -1.852 -12.043 -4.596 -20.534 -7.824 c -6.634 -2.839 -21.415 -5.979 -31 -2.277 c -6.925 2.566 -13.628 10.153 -15.469 11.727 c -3.865 2.958 -7.387 2.734 -6.483 4.317 c 0.952 1.359 3.001 0.858 5.4 -0.341 c 0.136 -0.068 0.263 -0.145 0.396 -0.214 c 2.013 0.862 6.544 1.815 8.285 3.249 c 4.096 2.933 8.495 4.911 13.339 5.672 c 0.511 1.436 0.247 2.519 -0.281 3.303 c -1.402 2.368 -4.457 3.141 -5.75 4.285 c -1.075 0.95 2.095 2.237 3.382 3.144 c 2.03 1.714 2.461 1.735 3.044 5.428 c 0.482 5.194 0.338 9.143 0 14.571 c -0.26 2.086 6.547 1.436 6.427 0 c -0.974 -8.11 -1.723 -18.932 1.276 -27.825 c 4.874 7.6 11.085 15.288 18.34 20.491 c 7.027 5.039 16.312 7.917 24.691 7.801 c 5.15 -0.396 9.036 -2.824 10.485 -6.501 C 95.771 74.517 95.255 70.815 90.796 67.831 z M 14.314 43.185 c 5.374 -3.791 9.573 -8.661 18.389 -9.848 c -1.666 1.674 -2.622 3.928 -2.456 6.35 c 0.325 4.746 4.819 8.327 10.038 7.998 c 5.219 -0.33 9.187 -4.445 8.862 -9.191 c -0.131 -1.916 -0.948 -3.635 -2.211 -4.99 c 4.687 0.63 8.798 1.706 11.448 2.767 c 3.019 1.109 7.267 3.196 11.484 4.903 c -1.924 0.535 -3.865 1.361 -5.574 2.215 c -7.412 3.552 -9.743 5.025 -17.533 6.318 c -7.152 1.219 -17.423 0.982 -23.576 -2.746 C 20.172 45 16.932 43.536 14.314 43.185 z" style="stroke: #2600ff; stroke-width: 1; stroke-dasharray: ; stroke-linecap: butt; stroke-linejoin: miter; stroke-miterlimit: 10; fill: #2600ff; fill-rule: source-over; opacity: 1;" transform="translate(111.25 103) scale(2 2)translate(-50, -50)" stroke-linecap="round" />
</svg>