<?xml version="1.0" encoding="UTF-8" standalone="no" ?><!DOCTYPE svg PUBLIC "-//W3C//DTD SVG 1.1//EN" "http://www.w3.org/Graphics/SVG/1.1/DTD/svg11.dtd">
<svg xmlns="http://www.w3.org/2000/svg" xmlns:xlink="http://www.w3.org/1999/xlink" version="1.1" width="232" height="210" xml:space="preserve"><desc>Created with Fabric.js 1.4.11</desc><defs></defs><path d="M 54.008 11.715 C 50.843 9.5 45.366 8.773 41.519 8.773 c -2.828 0 -4.751 1.81 -6.108 1.81 c -2.488 0.227 -11.289 0.22 -12.217 1.812 l -2.375 4.071 c -1.492 2.558 -8.183 4.207 -6.789 8.032 l 1.814 4.978 l -0.004 5.431 c -1.206 1.733 -3.016 0.527 -3.92 -0.378 c -1.709 -1.708 -3.593 -0.692 -3.335 2.124 c 0.141 1.528 1.705 3.513 4.339 5.115 c -0.423 0.378 4.021 2.164 6.374 8.378 c -2.31 -3.933 -6.98 -6.693 -10.998 -3.415 c -7.209 5.885 -1.939 31.492 9.35 26.5 c 3.371 -1.489 5.026 -8.244 5.026 -12.262 c 0 2.108 2.512 7.739 4.323 7.739 c 4.021 1.306 8.845 -0.503 11.56 -0.503 c 2.513 0 3.72 -7.539 5.429 -7.539 c -0.361 0.744 -2.413 4.021 -2.413 5.629 c 3.921 2.613 8.545 -3.721 8.545 -6.734 c 0.396 -0.576 -0.037 -1.229 0.866 -1.485 c 3.639 -1.046 11.648 -1.675 14.916 -2.132 l 7.84 -0.805 v 4.322 c -7.104 1.607 -14.358 6.336 -14.633 14.359 c -0.268 7.836 2.637 12.768 9.562 16.199 c 3.428 1.692 10.488 1.59 14.117 -0.203 c 4.312 -2.127 6.402 -4.834 7.998 -9.767 c 2.582 -7.987 -3.23 -20.208 -12.422 -19.985 c -1.309 -0.104 -1.107 -4.022 -1.107 -5.328 c 2.814 -1.006 7.725 -2.897 10.538 -2.897 c 5.964 -5.983 8.015 -8.387 6.925 -9.013 c -1.937 -1.11 -7.059 1.482 -11.172 3.206 c -1.369 0.575 -2.406 1.932 -3.473 1.851 c -2.139 -0.161 -3.471 -2.109 -4.328 -4.545 c -0.736 -2.082 -0.031 -4.091 0.061 -4.779 c 0.252 -1.861 1.938 -0.881 2.271 -2.805 l 0.283 -2.028 c -2.812 -1.406 -8.17 -1.014 -11.486 -1.014 c 2.012 -1.005 0.73 -3.208 -0.375 -4.312 c -0.732 -0.732 -4.17 -2.195 -7.348 -1.296 c -2.631 0.743 -5.522 3.599 -2.604 5.418 c -0.13 0.329 -0.502 0.122 -0.946 0.196 c -0.733 0.126 -1.655 0.306 -1.949 -0.29 C 53.654 26.934 62.453 17.629 54.008 11.715 L 54.008 11.715 z" style="stroke: #ff0055; stroke-width: 1; stroke-dasharray: ; stroke-linecap: butt; stroke-linejoin: miter; stroke-miterlimit: 10; fill: #ff0055; fill-rule: source-over; opacity: 1;" transform="translate(116.44 112) scale(2 2)translate(-50, -50)" stroke-linecap="round" />
<path d="M 8.604 49.27 c 1.166 2.855 2.333 5.71 3.499 8.565 c 0.201 0.103 0.401 0.202 0.604 0.304 c -0.302 -3.822 -0.604 -7.644 -0.905 -11.46 C 9.979 47.163 9.216 48.179 8.604 49.27 L 8.604 49.27 z M 8.06 50.297 c -0.812 1.215 -1.074 2.566 -1.084 3.98 c 1.406 1.125 2.814 2.252 4.223 3.377 C 10.152 55.201 9.106 52.75 8.06 50.297 L 8.06 50.297 z M 6.794 55.245 c -0.04 1.646 -0.081 3.295 -0.121 4.944 c 1.125 -0.103 2.253 -0.201 3.378 -0.304 c 0.122 -0.422 0.242 -0.844 0.361 -1.267 c 0.221 -0.184 0.444 -0.361 0.664 -0.543 C 9.649 57.134 8.222 56.188 6.794 55.245 L 6.794 55.245 z M 10.172 60.249 c -1.026 0.142 -2.052 0.282 -3.078 0.423 c 0.065 1.77 0.658 3.539 1.33 5.309 c 0.984 -1.308 1.97 -2.612 2.955 -3.92 C 10.978 61.456 10.574 60.854 10.172 60.249 L 10.172 60.249 z M 11.862 62.3 c -1.046 1.349 -2.092 2.695 -3.138 4.041 c 0.604 1.269 1.407 2.535 2.413 3.802 C 11.378 67.527 11.619 64.914 11.862 62.3 L 11.862 62.3 z M 12.706 62.542 c -0.302 2.834 -0.604 5.67 -0.905 8.506 c 0.885 0.479 1.77 0.963 2.654 1.447 c -0.32 -3.22 -0.644 -6.435 -0.964 -9.651 C 13.229 62.743 12.967 62.643 12.706 62.542 L 12.706 62.542 z M 14.334 63.688 c 0.381 3.018 0.764 6.03 1.146 9.049 c 1.309 0.135 1.911 -0.791 2.413 -1.869 C 17.894 70.866 14.274 63.564 14.334 63.688 L 14.334 63.688 z M 14.213 61.814 c 1.51 2.756 3.018 5.513 4.524 8.268 c 0.596 -1.382 1.228 -2.755 1.207 -4.343 c -1.669 -1.511 -3.337 -3.019 -5.008 -4.525 C 14.697 61.416 14.455 61.618 14.213 61.814 L 14.213 61.814 z M 20.005 59.404 c -0.626 -0.133 -3.017 0.279 -4.523 0.423 c -0.062 0.241 -0.121 0.481 -0.182 0.728 c 1.588 1.266 3.177 2.53 4.764 3.801 C 20.368 64.503 20.63 59.536 20.005 59.404 L 20.005 59.404 z M 18.558 52.891 c -1.166 1.688 -2.334 3.379 -3.5 5.067 c 0.062 0.26 0.121 0.522 0.181 0.783 c 1.569 -0.042 3.138 -0.081 4.707 -0.12 C 19.81 56.793 19.498 54.92 18.558 52.891 L 18.558 52.891 z M 15.481 48.427 c -0.081 0.12 -1.248 6.273 -1.871 9.41 c 0.061 0.16 0.12 0.322 0.182 0.481 c 1.388 -2.19 2.775 -4.383 4.162 -6.575 C 18.154 51.743 15.562 48.306 15.481 48.427 L 15.481 48.427 z M 12.646 46.678 c -0.191 0.255 0.282 7.479 0.423 11.222 c 0.562 -3.381 1.125 -6.76 1.688 -10.137 C 14.909 47.537 12.838 46.418 12.646 46.678 L 12.646 46.678 z" style="stroke: #141312; stroke-width: 1; stroke-dasharray: ; stroke-linecap: butt; stroke-linejoin: miter; stroke-miterlimit: 10; fill: #141312; fill-rule: source-over; opacity: 1;" transform="translate(116.44 112) scale(2 2)translate(-50, -50)" stroke-linecap="round" />
<path d="M 52.848 33.201 c -0.559 -4.374 3.271 -8.91 3.271 -14.464 c 0 -4.654 -6.723 -7.758 -11.118 -7.758 c -8.793 0 -10.731 2.715 -14.223 9.697 c -2.715 5.429 -5.043 13.704 -5.043 19.782 c 1.292 1.293 4.267 4.138 4.267 5.688 l 17.971 -1.939 c -0.129 1.293 -0.904 1.939 -0.904 3.232 c -0.134 0.4 -15.769 2.067 -17.712 2.067 c -0.776 -1.551 -3.103 -5.816 -4.655 -5.816 c -2.759 -0.991 -5.516 -2.845 -8.274 -5.56 c 0 1.034 1.423 2.585 1.423 3.231 s 5.429 6.077 5.429 6.336 c 1.423 4.526 2.198 13.833 5.172 17.454 c 1.811 1.811 5.688 1.683 8.403 1.683 c 1.423 -1.163 2.586 -4.14 2.586 -5.688 c -0.13 0.518 -1.422 0.903 -1.422 1.033 c -3.104 0 -7.112 -1.422 -9.698 -1.422 c 0 -1.551 -1.033 -8.921 -2.067 -8.921 c 0.431 -0.301 1.594 -0.688 2.197 -1.422 c 5.055 -0.045 9.171 -0.724 12.486 -0.997 c 9.826 -0.812 12.675 -3.156 13.501 -0.557 c -3.231 1.553 -9.956 4.915 -9.956 9.051 c 1.293 -2.584 12.413 -2.455 15.385 -2.455 c 0 -2.717 -1.422 -5.56 -4.137 -5.56 c 3.229 -4.784 -6.854 -3.232 -6.854 -2.586 c -0.591 -3.783 4.584 -9.272 4.039 -13.568 L 52.848 33.201 L 52.848 33.201 z M 28.189 33.89 l 7.161 0.074 c 1.056 0 2.412 0.151 3.241 0.151 c 0.829 0 -0.301 1.96 -0.301 2.187 l 2.863 -0.075 c -1.584 0 -0.68 2.639 -0.227 3.542 c 0.453 0.98 0.679 2.864 0.679 4.221 c 0.105 -0.777 0.774 0.767 0.733 -0.738 c -0.05 -1.704 -0.78 -6.423 0.021 -6.423 c 1.656 0.226 1.884 1.432 2.863 1.885 c -0.312 -8.822 -5.704 -16.175 -14.097 -17.187 c 0 -0.376 0.607 -1.062 0.607 -1.288 c 12.094 1.088 13.829 9.442 13.865 18.55 c 1.62 -7.792 1.482 -24.95 -9.574 -24.95 c 0 -0.227 0.995 -1.062 1.145 -1.062 c 12.263 0.542 10.988 17.715 8.807 26.238 l 3.618 2.261 l -1.28 2.337 l -8.144 0.829 l -9.948 0.45 c -0.302 -1.958 -3.619 -4.445 -3.619 -5.576 L 28.189 33.89 L 28.189 33.89 z" style="stroke: #00ccff; stroke-width: 1; stroke-dasharray: ; stroke-linecap: butt; stroke-linejoin: miter; stroke-miterlimit: 10; fill: #00ccff; fill-rule: source-over; opacity: 1;" transform="translate(116.44 112) scale(2 2)translate(-50, -50)" stroke-linecap="round" />
<path d="M 61.809 35.544 c -0.906 1.811 -5.303 11.379 -1.426 13.317 c 1.94 0.905 3.105 3.491 5.949 3.491 h 8.018 c 0.773 -0.903 3.23 -3.491 4.139 -3.491 c -5.938 -3.129 -4.981 -6.521 -4.397 -12.541 L 63.1 36.062 l -0.031 -0.695 l 14.607 -0.771 c -0.162 -0.328 -0.137 0.01 -0.078 -0.5 c -6.914 -0.819 -14.738 -0.762 -21.721 -0.365 c -0.986 0.055 -1.988 0.037 -2.188 -0.373 c 0.16 -2.114 -1.24 1.072 0.908 2.032 C 56.057 36.04 60.123 35.544 61.809 35.544 L 61.809 35.544 z M 67.152 30.125 c -0.973 -1.533 -2.457 -2.302 -4.021 -2.543 c -3 -0.462 -6.298 1.009 -6.876 2.733 c -0.344 1.026 0.092 1.998 1.721 2.386 l 0.903 -0.09 c -2.124 -0.337 -1.509 -2.389 -0.106 -3.529 C 60.407 27.752 64.456 26.767 67.152 30.125 L 67.152 30.125 z" style="stroke: #ffaa00; stroke-width: 1; stroke-dasharray: ; stroke-linecap: butt; stroke-linejoin: miter; stroke-miterlimit: 10; fill: #ffaa00; fill-rule: source-over; opacity: 1;" transform="translate(116.44 112) scale(2 2)translate(-50, -50)" stroke-linecap="round" />
<path d="M 65.577 65.318 c 0.614 0.742 5.427 5.781 8.14 8.671 c 0.278 -0.101 0.557 -0.199 0.83 -0.302 c -0.449 -3.973 -0.902 -7.938 -1.354 -11.912 C 72.65 60.911 64.965 64.579 65.577 65.318 L 65.577 65.318 z M 64.424 66.325 c -1.053 0.053 -4.127 6.481 -3.293 6.76 c 3.43 1.144 7.236 0.953 10.805 1.532 c 0.102 -0.327 0.102 -0.452 0.201 -0.778 C 69.698 71.2 66.857 68.965 64.424 66.325 L 64.424 66.325 z M 71.686 75.346 c -3.595 -0.176 -7.188 -0.353 -10.779 -0.527 c -0.377 2.16 -0.051 3.719 1.181 5.881 c 3.116 -1.482 6.332 -2.363 9.447 -3.846 C 71.531 76.852 71.759 75.12 71.686 75.346 L 71.686 75.346 z M 72.137 77.605 c -1.572 0.896 -6.08 3.316 -9.121 4.824 c 1.658 2.487 3.043 3.858 5.104 4.537 c 1.481 -2.639 3.438 -5.367 4.922 -8.006 C 73.039 78.964 73.707 76.709 72.137 77.605 L 72.137 77.605 z M 73.494 79.341 l -4.076 8.267 c 2.598 1.334 4.314 1.533 6.714 1.258 l -0.769 -9.221 C 74.686 79.54 74.171 79.441 73.494 79.341 L 73.494 79.341 z M 77.486 78.587 l -1.104 0.82 l 2.059 9.075 c 2.916 -0.322 4.195 -1.278 5.906 -2.811 C 84.35 85.674 77.65 78.168 77.486 78.587 L 77.486 78.587 z M 78.467 76.93 c -0.099 0.275 -0.199 0.551 -0.301 0.829 c 2.461 2.41 4.926 4.824 7.387 7.236 c 1.821 -1.822 3.204 -3.957 3.618 -6.785 C 85.604 77.782 82.035 77.355 78.467 76.93 L 78.467 76.93 z M 88.492 70.57 c -0.596 0.408 -6.834 2.664 -10.25 4.244 c 0.126 0.354 0.251 0.707 0.376 1.06 c 3.618 0.478 7.235 0.554 10.854 1.028 C 90.132 76.812 89.088 70.163 88.492 70.57 L 88.492 70.57 z M 83.417 64.141 c -1.835 3.189 -4.474 5.979 -6.31 9.17 c 0.131 0.179 0.254 0.354 0.379 0.528 c 3.568 -1.608 7.137 -3.217 10.703 -4.823 C 86.65 66.87 85.98 65.055 83.417 64.141 L 83.417 64.141 z M 75.83 61.854 c -0.023 3.769 -0.051 7.537 -0.077 11.305 c 0.149 0.023 0.302 0.052 0.454 0.074 c 1.757 -3.414 3.518 -6.834 5.273 -10.252 C 79.764 62.198 77.952 61.634 75.83 61.854 L 75.83 61.854 z" style="stroke: #121010; stroke-width: 1; stroke-dasharray: ; stroke-linecap: butt; stroke-linejoin: miter; stroke-miterlimit: 10; fill: #121010; fill-rule: source-over; opacity: 1;" transform="translate(116.44 112) scale(2 2)translate(-50, -50)" stroke-linecap="round" />
</svg>