<?xml version="1.0" encoding="UTF-8" standalone="no" ?><!DOCTYPE svg PUBLIC "-//W3C//DTD SVG 1.1//EN" "http://www.w3.org/Graphics/SVG/1.1/DTD/svg11.dtd">
<svg xmlns="http://www.w3.org/2000/svg" xmlns:xlink="http://www.w3.org/1999/xlink" version="1.1" width="407" height="133" xml:space="preserve"><desc>Created with Fabric.js 1.4.11</desc><defs></defs><path d="M 57.553 31.545 c 1.358 0.335 2.682 0.903 3.861 1.723 c 1.219 0.848 2.279 1.976 3.057 3.309 c -0.541 -1.446 -1.42 -2.792 -2.559 -3.91 c -1.102 -1.08 -2.424 -1.948 -3.864 -2.577 c -2.728 -1.198 -5.917 -1.606 -9.022 -0.808 l 0.961 2.814 C 52.202 31.061 54.954 30.913 57.553 31.545 z" style="stroke: #ff0048; stroke-width: 1; stroke-dasharray: ; stroke-linecap: butt; stroke-linejoin: miter; stroke-miterlimit: 10; fill: #ff0048; fill-rule: source-over; opacity: 1;" transform="translate(108.73 79) scale(2 2)translate(-50, -50)" stroke-linecap="round" />
<path d="M 65.322 45.231 c -2.959 1.877 -12.477 6.861 -12.779 7.57 c -0.908 1.967 -1.557 4.043 -2.689 5.777 c -0.44 0.605 -0.838 1.148 -1.33 1.4 c -0.074 0.004 -0.146 0.016 -0.23 0.02 c -0.451 0.033 -0.914 0.059 -1.382 0.08 c -1.612 0.08 -3.229 0.139 -4.853 0.193 c -4.604 0.164 -9.218 0.295 -13.828 0.41 c 0.004 -0.146 0.021 -0.295 0.021 -0.447 c 0 -4.604 -2.774 -8.402 -6.625 -10.036 c 0.137 0.044 0.276 0.085 0.411 0.136 c 0.997 0.376 1.926 0.955 2.759 1.648 c 1.077 0.897 2.001 1.981 2.824 3.145 c 0.124 0.178 0.289 0.348 0.506 0.438 c 0.173 0.066 0.363 0.064 0.533 0.011 c 0.406 -0.146 0.688 -0.482 0.921 -0.812 c 0.269 -0.371 0.485 -0.772 0.674 -1.188 c 0.073 -0.16 0.142 -0.324 0.202 -0.492 c 0.035 -0.098 0.072 -0.193 0.086 -0.293 c -0.018 0.1 -0.062 0.191 -0.102 0.289 c -0.067 0.162 -0.145 0.318 -0.226 0.479 c -0.208 0.402 -0.442 0.789 -0.726 1.142 c -0.25 0.307 -0.529 0.614 -0.883 0.709 c -0.137 0.041 -0.285 0.032 -0.404 -0.022 c -0.162 -0.07 -0.288 -0.222 -0.393 -0.386 c -0.77 -1.213 -1.652 -2.367 -2.719 -3.354 c -0.828 -0.766 -1.772 -1.422 -2.822 -1.885 c -0.91 -0.398 -1.887 -0.644 -2.876 -0.734 c -0.953 -0.09 -1.911 -0.049 -2.849 0.07 c -1.851 0.234 -3.625 0.741 -5.375 1.084 c -0.816 0.158 -1.623 0.281 -2.415 0.299 c -0.682 0.181 -1.346 0.29 -1.937 0.267 c 1.315 -1.755 3.234 -3.042 5.38 -3.75 c 2.078 -0.938 4.38 -1.354 6.626 -1.222 c 2.233 0.14 4.428 0.832 6.204 2.068 c 1.912 1.311 3.345 3.304 4.133 5.492 l 1.446 -0.567 c 0.09 0.086 0.177 0.172 0.267 0.256 c 0.167 0.156 0.362 0.246 0.558 0.276 c 0.232 0.037 0.45 0.021 0.647 -0.021 c 0.552 -0.109 1.044 -0.353 1.497 -0.605 c 1.306 -0.732 2.458 -1.686 3.539 -2.687 c 1.043 -0.965 2.023 -2.008 2.871 -3.147 c -0.018 0.11 -0.043 0.218 -0.057 0.329 h 0.299 c 4.357 -1.293 8.205 -2.938 12.303 -4.557 c 0.578 -0.25 1.248 -0.308 1.914 -0.256 c 0.687 0.055 1.373 0.222 2.072 0.381 c 0.686 0.16 1.387 0.322 2.105 0.355 c 0.697 0.035 1.414 -0.081 2.033 -0.408 c 0.32 -0.184 0.482 -0.508 0.619 -0.793 c 0.213 -0.418 0.373 -0.859 0.514 -1.303 c 0.137 -0.438 0.249 -0.879 0.316 -1.33 c 0.027 -0.17 0.049 -0.343 0.053 -0.517 c 0 -0.112 -0.004 -0.229 -0.047 -0.331 l 1.476 -0.147 c -0.12 -1.306 -0.595 -2.718 -1.604 -3.896 c -0.916 -0.967 -2.094 -1.51 -3.281 -1.653 c -1.354 -0.162 -2.639 0.03 -3.795 0.365 c -1.404 0.396 -2.717 0.974 -3.946 1.64 c -2.717 1.465 -5.182 3.354 -7.312 5.543 c -0.976 0.997 -1.889 2.077 -2.668 3.264 c -0.119 0.283 -0.234 0.57 -0.342 0.865 c -0.807 0.487 -1.813 0.871 -2.494 1.07 c -0.869 0.283 -2.326 -0.764 -3.344 -0.913 c -1.111 -0.167 -2.236 -0.549 -3.381 -0.997 c -1.21 -0.479 -2.42 -1.046 -3.666 -1.604 c -1.219 -0.547 -2.48 -1.09 -3.812 -1.516 c -1.226 -0.396 -2.542 -0.675 -3.91 -0.664 c -1.355 0.016 -2.7 0.375 -3.872 1.065 c -1.205 1.017 -2.125 2.327 -2.852 3.698 c -0.65 0.232 -1.286 0.507 -1.899 0.822 c -2.204 1.403 -4.124 3.36 -5.401 5.699 c 0.945 0.424 1.898 0.65 2.812 0.75 c 0.751 -0.057 1.475 -0.197 2.182 -0.365 c -2.68 1.957 -4.461 5.117 -4.461 8.799 c 0 0.259 0.021 0.507 0.038 0.757 c -0.259 -0.009 -0.519 -0.009 -0.778 -0.021 c -0.17 -0.009 -0.34 -0.015 -0.511 -0.027 c -0.098 -0.012 -0.197 -0.019 -0.292 -0.039 c 0.094 0.022 0.193 0.039 0.291 0.053 c 0.169 0.021 0.339 0.037 0.508 0.055 c 0.261 0.021 0.524 0.035 0.785 0.053 c 0.422 5.756 5.2 10.068 10.812 10.068 c 4.509 0 8.479 -2.787 10.086 -6.865 C 38.716 63.875 52.398 63.4 51.602 63.4 c -0.44 0 3.871 -1.283 -1.199 -1.396 c -0.608 -0.012 -1.295 -0.021 -2.036 -0.028 c 0.016 0 0.03 0 0.046 0 c 0.136 0 0.287 -0.011 0.447 -0.021 c 0.047 0 0.109 -0.013 0.188 -0.021 c -0.021 0.021 1.754 -0.16 2.029 -0.256 c 1.028 -2.174 2.646 -5.246 4.017 -7.914 c 0.422 -0.787 11.233 -8.928 11.717 -9.423 L 56.352 51.77 L 65.322 45.231 z M 42.264 44.416 c 0.762 -1.04 1.658 -1.988 2.623 -2.878 c 2.121 -1.956 4.516 -3.596 7.089 -4.809 c 1.162 -0.545 2.342 -0.998 3.535 -1.258 c 0.993 -0.209 1.954 -0.32 2.793 -0.146 c 0.659 0.141 1.273 0.44 1.592 0.885 c 0.479 0.519 0.646 1.401 0.746 2.343 l 1.478 -0.146 c 0.041 0.104 0.034 0.218 0.024 0.329 c -0.012 0.173 -0.041 0.342 -0.076 0.511 c -0.094 0.442 -0.229 0.876 -0.387 1.299 c -0.158 0.433 -0.342 0.856 -0.568 1.25 c -0.16 0.272 -0.313 0.563 -0.559 0.667 c -0.586 0.276 -1.253 0.34 -1.9 0.277 c -0.678 -0.068 -1.344 -0.26 -2.021 -0.454 c -0.687 -0.198 -1.385 -0.407 -2.124 -0.509 c -0.729 -0.103 -1.496 -0.07 -2.225 0.188 c -4.045 1.542 -7.979 3.249 -11.904 4.72 C 40.785 45.858 41.479 45.114 42.264 44.416 z M 17.036 42.384 c 0.905 -0.487 1.955 -0.711 2.984 -0.676 c 1.074 0.026 2.164 0.325 3.25 0.717 c 1.178 0.431 2.335 0.997 3.513 1.586 c 1.195 0.604 2.408 1.235 3.685 1.812 c 1.197 0.543 2.478 1.033 3.866 1.32 c 1.3 0.273 2.708 0.307 4.107 -0.043 c 0.656 -0.177 1.22 -0.647 1.736 -1.209 c -0.051 0.209 -0.097 0.422 -0.137 0.635 c -0.93 1.18 -2.01 2.228 -3.152 3.195 c -1.117 0.943 -2.285 1.824 -3.564 2.466 c -0.45 0.223 -0.896 0.42 -1.348 0.481 c -0.156 0.021 -0.303 0.029 -0.424 0 c -0.091 -0.022 -0.173 -0.062 -0.215 -0.112 c -0.02 -0.021 -0.038 -0.039 -0.055 -0.062 l 0.639 -0.252 c -1.117 -2.687 -3.029 -5.028 -5.499 -6.562 c -2.288 -1.404 -4.921 -2.09 -7.525 -2.106 c -1.679 -0.015 -3.349 0.241 -4.939 0.735 C 14.844 43.453 15.855 42.727 17.036 42.384 z M 17.398 68.771 c -4.215 0 -7.603 -2.779 -8.606 -6.349 l 4.492 2.328 c 0 0 5.284 -0.185 11.926 -0.41 C 23.704 66.938 20.819 68.771 17.398 68.771 z M 26.109 62.088 c -8.692 0.104 -16.315 0.238 -17.34 0.258 c -0.104 -0.385 -0.187 -0.777 -0.233 -1.18 c 1.347 0.064 2.694 0.127 4.042 0.172 c 4.536 0.156 9.074 0.268 13.611 0.361 C 26.167 61.83 26.141 61.961 26.109 62.088 z M 26.309 60.729 c -4.575 0.111 -9.148 0.211 -13.724 0.265 c -1.356 0.014 -2.71 0.016 -4.066 0.014 c -0.023 -0.254 -0.04 -0.512 -0.04 -0.771 c 0 -4.555 3.873 -8.516 8.919 -8.516 c 5.047 0 8.938 3.961 8.938 8.516 C 26.335 60.4 26.318 60.566 26.309 60.729 z M 28.088 62.062 c 0.018 -0.105 0.035 -0.213 0.051 -0.322 c 4.444 0.092 8.893 0.168 13.34 0.217 C 37.35 61.969 32.639 62.012 28.088 62.062 z M 48.688 59.959 c 0.002 0 -0.013 0 -0.045 0.01 c 0 0 -0.002 0 -0.004 0 C 48.704 59.947 48.723 59.943 48.688 59.959 z" style="stroke: #ffd500; stroke-width: 1; stroke-dasharray: ; stroke-linecap: butt; stroke-linejoin: miter; stroke-miterlimit: 10; fill: #ffd500; fill-rule: source-over; opacity: 1;" transform="translate(108.73 79) scale(2 2)translate(-50, -50)" stroke-linecap="round" />
<path d="M 65.322 45.231 c 0.447 -0.281 0.748 -0.498 0.843 -0.613 L 65.322 45.231 z" style="stroke: none; stroke-width: 1; stroke-dasharray: ; stroke-linecap: butt; stroke-linejoin: miter; stroke-miterlimit: 10; fill: #5E564C; fill-rule: source-over; opacity: 1;" transform="translate(107.73 78) scale(2 2)translate(-50, -50)" stroke-linecap="round" />
<path d="M 87.708 49.815 c 0.192 -0.189 0.319 -0.441 0.345 -0.709 c 0.038 -0.461 -0.119 -0.912 -0.3 -1.332 l 0.503 -1.398 c -2.97 -1.021 -6.249 -1.291 -9.346 -0.484 c -0.973 0.258 -1.904 0.627 -2.787 1.09 c -1.814 -2.897 -3.654 -5.807 -5.688 -8.613 c 0.309 -0.077 0.604 -0.196 0.875 -0.355 c 1.014 -0.603 1.758 -1.587 2.188 -2.666 c 0.38 -1.154 0.423 -2.553 -0.168 -3.953 c -1.48 -0.049 -2.99 -0.519 -4.434 -0.297 c -1.316 0.325 -2.5 0.793 -3.59 1.078 l 0.486 1.416 c -0.001 -0.002 -0.002 -0.006 -0.004 -0.009 c 0.25 0.971 0.554 1.989 1.079 2.875 l -0.96 0.858 c 3.15 3.224 5.949 6.871 8.757 10.552 c -0.979 0.675 -1.871 1.47 -2.64 2.376 c -1.777 2.107 -2.885 4.71 -3.24 7.396 c -0.115 3.004 0.617 6.049 1.968 8.748 c 0.224 0.016 0.448 0.02 0.662 0.038 c 0.017 -0.018 0.078 -0.021 0.178 -0.028 c 0.247 -0.01 0.558 0.086 0.919 0.188 c 0.279 0.086 0.646 0.222 1.109 0.267 c 0.146 0.047 0.408 0 0.744 -0.181 c 0.311 -0.338 0.423 -0.653 0.369 -0.896 c -0.379 -1.604 -0.786 -3.176 -1.061 -4.754 c -0.211 -1.271 -0.339 -2.551 -0.131 -3.771 c 0.189 -1.172 0.74 -2.295 1.527 -3.219 c 0.732 -0.863 1.646 -1.574 2.625 -2.205 c 0.033 0.045 0.066 0.086 0.102 0.129 c -2.18 1.947 -3.59 4.824 -3.59 8.131 c 0 6.088 4.768 10.758 10.396 10.758 c 5.627 0 10.396 -4.67 10.396 -10.758 C 95.002 55.158 91.883 51.162 87.708 49.815 z M 68.123 35.333 l -0.939 0.841 c -0.291 -0.377 -0.545 -0.802 -0.771 -1.249 c 1.188 -0.514 2.209 -1.092 3.214 -1.489 c 0.819 -0.486 1.726 -0.8 2.582 -0.699 c 0.253 0.49 0.146 1.312 -0.138 2.117 c -0.232 0.871 -0.666 1.715 -1.354 2.252 c -0.271 0.207 -0.571 0.358 -0.893 0.427 C 69.271 36.792 68.708 36.057 68.123 35.333 z M 74.523 53.531 c -0.916 0.979 -1.588 2.205 -1.877 3.547 c -0.287 1.371 -0.225 2.77 -0.054 4.105 c 0.181 1.432 0.466 2.825 0.732 4.202 c -0.118 -0.043 -0.242 -0.09 -0.394 -0.139 c -0.354 -0.129 -0.783 -0.267 -1.289 -0.304 c -0.225 -0.021 -0.488 0.013 -0.774 0.111 c -0.077 0.139 -0.104 0.355 -0.052 0.635 c -0.805 -2.487 -0.924 -5.215 -0.18 -7.766 c 0.422 -2.322 1.481 -4.523 3.051 -6.209 c 0.711 -0.766 1.533 -1.42 2.422 -1.959 c 0.09 0.115 0.177 0.229 0.265 0.343 c 0.317 0.418 0.646 0.834 0.966 1.256 C 76.322 51.959 75.352 52.652 74.523 53.531 z M 77.562 49.27 c -0.041 -0.064 -0.082 -0.131 -0.121 -0.194 c 0.67 -0.293 1.365 -0.528 2.072 -0.683 c 2.532 -0.563 5.26 -0.172 7.735 0.781 v 0.001 l 0.503 -1.399 c 0.17 0.425 0.307 0.879 0.234 1.322 c -0.036 0.271 -0.19 0.514 -0.4 0.68 c -0.945 -0.293 -1.945 -0.453 -2.979 -0.453 c -1.312 0 -2.572 0.263 -3.74 0.729 c -0.188 0.012 -0.373 0.021 -0.561 0.045 c -0.451 0.057 -0.912 0.166 -1.345 0.389 c -0.159 0.077 -0.315 0.165 -0.476 0.245 C 78.18 50.248 77.871 49.758 77.562 49.27 z M 78.787 51.17 c -0.006 0.002 -0.008 0.008 -0.012 0.01 c 0 0 0 0 -0.002 -0.002 C 78.777 51.176 78.781 51.172 78.787 51.17 z M 84.607 68.516 c -4.832 0 -8.539 -3.932 -8.539 -8.43 c 0 -2.533 1.175 -4.879 3.062 -6.445 c 2.396 3 4.937 5.896 7.865 8.334 c -2.693 -2.697 -4.927 -5.768 -7.021 -8.94 c 1.32 -0.851 2.899 -1.354 4.629 -1.354 c 4.834 0 8.559 3.907 8.559 8.407 C 93.166 64.584 89.441 68.516 84.607 68.516 z" style="stroke: #0073ff; stroke-width: 1; stroke-dasharray: ; stroke-linecap: butt; stroke-linejoin: miter; stroke-miterlimit: 10; fill: #0073ff; fill-rule: source-over; opacity: 1;" transform="translate(108.73 79) scale(2 2)translate(-50, -50)" stroke-linecap="round" />
<g transform="translate(304.05 76)">
<text font-family="Averia Sans Libre" font-size="40" font-weight="normal" style="stroke: #0066ff; stroke-width: 1; stroke-dasharray: ; stroke-linecap: butt; stroke-linejoin: miter; stroke-miterlimit: 10; fill: #0066ff; fill-rule: source-over; opacity: 1;" transform="translate(-95.82 39)"><tspan xml:space="preserve" x="0" y="-26" fill="#0066ff">Encik Deen</tspan></text>
</g>
</svg>